<svg version="1.1" xmlns="http://www.w3.org/2000/svg" xmlns:xlink="http://www.w3.org/1999/xlink" width="500" height="500"><defs><linearGradient x1="50" y1="205.89268" x2="50" y2="294.10732" gradientUnits="userSpaceOnUse" id="color-1"><stop offset="0" stop-color="#421999"></stop><stop offset="1" stop-color="#995719"></stop></linearGradient></defs><g data-paper-data="{&quot;description&quot;:&quot;Logo for Internet of things\n===========================\n\nThis logo was generated by MarkMaker at http://emblemmatic.org/markmaker/ and may be composed of elements designed by others.\n\nThe font is Dawning of a New Day designed by Kimberly Geswein and released under the OFL license via Google Fonts: https://www.google.com/fonts/specimen/Dawning%20of%20a%20New%20Day. The font includes this copyright statement: Copyright (c) 2010, Kimberly Geswein (kimberlygeswein.com kimberlygeswein@gmail.com)\n\nMarkMaker uses semantic data from the Princeton University WordNet database http://wordnet.princeton.edu and font descriptions from Google Fonts https://www.google.com/fonts.&quot;}" fill="url(#color-1)" fill-rule="nonzero" stroke="none" stroke-width="1" stroke-linecap="butt" stroke-linejoin="miter" stroke-miterlimit="10" stroke-dasharray="" stroke-dashoffset="0" font-family="none" font-weight="none" font-size="none" text-anchor="none" style="mix-blend-mode: normal"><g data-paper-data="{&quot;elementType&quot;:&quot;logo&quot;}"><g data-paper-data="{&quot;elementType&quot;:&quot;text&quot;}"><g data-paper-data="{&quot;baseline&quot;:74.8046875,&quot;elementType&quot;:&quot;row&quot;}"><g data-paper-data="{&quot;baselineProportion&quot;:0.9782886334610472,&quot;fontSize&quot;:100,&quot;baseline&quot;:74.8046875,&quot;elementType&quot;:&quot;word&quot;}"><path d="M54.68989,262.99026c-0.99257,0 -2.02236,-0.18611 -3.08937,-0.55832c-1.06701,-0.37221 -1.60052,-0.98016 -1.60052,-1.82385c0,-0.84368 0.37221,-1.26553 1.11664,-1.26553c0.49628,0 1.16627,0.13648 2.00995,0.40944c0.84368,0.27296 1.5633,0.40944 2.15884,0.40944c3.42437,0 6.87355,-0.93053 10.34754,-2.7916c3.47399,-1.86107 6.56337,-4.31768 9.26812,-7.36983c2.70475,-3.05215 5.12414,-6.40208 7.25817,-10.04977c2.13403,-3.64769 3.78417,-7.36983 4.95044,-11.16641c1.16627,-3.79658 1.7494,-7.35742 1.7494,-10.68253c0,-3.32511 -0.74443,-5.84375 -2.23328,-7.55594c-1.48885,-1.71218 -3.89584,-2.56827 -7.22095,-2.56827c-1.88588,0 -3.61047,0.98016 -5.17377,2.94049c-1.5633,1.96033 -2.70475,4.10676 -3.42437,6.4393c-0.71961,2.33254 -1.07942,4.36731 -1.07942,6.1043c0,5.26062 2.35735,8.58573 7.07206,9.97533l-1.41441,0.59554c-0.09926,0.09926 -0.70721,-0.12407 -1.82385,-0.66998c-1.11664,-0.54591 -1.9231,-1.01738 -2.41939,-1.41441c-2.4318,-1.48885 -3.64769,-4.36731 -3.64769,-8.63536c0,-2.23328 0.43425,-4.65267 1.30275,-7.25817c0.8685,-2.6055 2.24569,-4.95044 4.13157,-7.03484c1.88588,-2.0844 3.99509,-3.12659 6.32763,-3.12659c7.34502,0 11.01753,4.33009 11.01753,12.99026c0,8.66017 -2.63031,16.81165 -7.89093,24.45444c-5.26062,7.64279 -11.81158,13.47414 -19.65288,17.49404c-2.7792,1.43923 -5.45913,2.15884 -8.03982,2.15884z" data-paper-data="{&quot;elementType&quot;:&quot;letter&quot;,&quot;baseline&quot;:74.8046875,&quot;baselineProportion&quot;:0.9986962190352021,&quot;fontSize&quot;:100}"></path><path d="M101.46554,255.17377c0,-0.89331 0.01241,-2.4442 0.03722,-4.65267c0.02481,-2.20847 0.03722,-4.10676 0.03722,-5.69487c-1.3896,0.29777 -3.41196,2.0844 -6.06708,5.35988c-2.65512,3.27548 -4.10676,4.98766 -4.3549,5.13655c-1.93551,2.58068 -3.44918,4.41694 -4.54101,5.50876c-0.44666,0.59554 -1.16627,0.89331 -2.15884,0.89331v-1.63774l3.20104,-10.34754c0,-3.62288 0.62036,-6.30282 1.86107,-8.03982c0.3474,-0.49628 0.66998,-0.74443 0.96776,-0.74443c0.49628,0 0.74443,0.83128 0.74443,2.49383c0,1.66255 -0.24814,3.49881 -0.74443,5.50876c-0.49628,2.00995 -0.74443,3.68492 -0.74443,5.02488c0.39703,-0.39703 1.58811,-1.78663 3.57325,-4.16879c1.98514,-2.38217 3.17622,-3.77177 3.57325,-4.16879c0.3474,-0.19851 0.94294,-0.6948 1.78663,-1.48885c1.78663,-1.58811 3.34992,-2.38217 4.68989,-2.38217c0.74443,0 1.2159,0.24814 1.41441,0.74443c0.04963,0.54591 0.07444,1.42682 0.07444,2.64272c0,1.2159 -0.19851,3.12659 -0.59554,5.73209c-0.39703,2.6055 -0.62036,4.67749 -0.66998,6.21597c0,2.33254 0.96776,3.49881 2.90327,3.49881c1.3896,0 2.72957,-0.38462 4.01991,-1.15386c1.29034,-0.76924 2.33254,-1.63774 3.12659,-2.6055c0.79406,-0.96776 1.71218,-2.0844 2.75438,-3.34992c1.0422,-1.26553 1.96033,-2.19606 2.75438,-2.7916v0.74443c0,2.38217 -1.53848,4.85119 -4.61545,7.40705c-3.07697,2.55587 -5.88098,3.8338 -8.41203,3.8338h-2.45661c-0.74443,-0.49628 -1.22831,-0.96776 -1.45163,-1.41441c-0.22333,-0.44666 -0.38462,-0.76924 -0.48388,-0.96776c-0.09926,-0.19851 -0.16129,-0.50869 -0.18611,-0.93053c-0.02481,-0.42184 -0.03722,-0.73202 -0.03722,-0.93053z" data-paper-data="{&quot;elementType&quot;:&quot;letter&quot;,&quot;baseline&quot;:28.80859375,&quot;baselineProportion&quot;:1.0102739726027397,&quot;fontSize&quot;:100}"></path><path d="M112.58312,247.13395l-0.89331,0.22333c-0.14889,0.14889 -0.57073,0.27296 -1.26553,0.37221c-0.6948,0.09926 -1.36478,0.09926 -2.00995,0c-0.64517,-0.09926 -0.94294,-0.3474 -0.89331,-0.74443c-0.09926,-1.43923 0.81887,-2.0844 2.75438,-1.93551c2.03477,0.14889 3.22585,-0.49628 3.57325,-1.93551l3.49881,-13.32525l1.41441,-1.41441c0.49628,0.14889 0.74443,0.59554 0.74443,1.33997l-0.07444,0.74443l-3.49881,14.06968v0.37221c0.39703,0.14889 0.99257,0.22333 1.78663,0.22333c0.79406,0 2.20847,-0.28536 4.24324,-0.85609c2.03477,-0.57073 3.20104,-0.85609 3.49881,-0.85609c0,2.72957 -1.83625,4.09435 -5.50876,4.09435c-1.14146,0 -2.4318,-0.12407 -3.87102,-0.37221c-1.09183,2.48142 -1.63774,4.75193 -1.63774,6.81151c0,2.05958 0.54591,3.94547 1.63774,5.65765c1.09183,1.71218 2.7792,2.56827 5.06211,2.56827c2.33254,-0.3474 4.13157,-0.90572 5.3971,-1.67496c1.26553,-0.76924 2.19606,-1.31516 2.7916,-1.63774c0.59554,-0.32259 1.19108,-0.48388 1.78663,-0.48388c0.59554,0 1.24071,0.07444 1.93551,0.22333c-1.3896,2.48142 -5.40951,4.11916 -12.05972,4.91322c-0.14889,0 -0.27296,0 -0.37221,0c-3.42437,0 -5.73209,-1.26553 -6.92317,-3.79658c-0.89331,-1.83625 -1.33997,-3.95787 -1.33997,-6.36485c0,-2.40698 0.07444,-4.47897 0.22333,-6.21597z" data-paper-data="{&quot;elementType&quot;:&quot;letter&quot;,&quot;baseline&quot;:45.3125,&quot;baselineProportion&quot;:0.9830508474576272,&quot;fontSize&quot;:100}"></path><path d="M124.74289,255.09933c-0.04963,-0.44666 -0.07444,-0.8685 -0.07444,-1.26553c0,-3.17622 1.05461,-6.4517 3.16382,-9.82644c2.10921,-3.37474 4.82637,-5.06211 8.15148,-5.06211c0.64517,0 1.16627,0.18611 1.5633,0.55832c0.39703,0.37221 0.59554,0.99257 0.59554,1.86107c0,0.8685 -0.23574,1.88588 -0.70721,3.05215c-0.47147,1.16627 -1.19108,2.34495 -2.15884,3.53603c-0.96776,1.19108 -1.79903,2.15884 -2.49383,2.90327c-0.6948,0.74443 -1.67496,1.71218 -2.94049,2.90327c-1.26553,1.19108 -2.02236,1.9107 -2.2705,2.15884c-0.04963,0.39703 -0.07444,0.62036 -0.07444,0.66998c0,1.33997 0.64517,2.38217 1.93551,3.12659c1.29034,0.74443 2.63031,1.11664 4.01991,1.11664c3.32511,0 5.96783,-0.59554 7.92815,-1.78663c1.96033,-1.19108 4.23083,-3.20104 6.81151,-6.02986c0.39703,-0.49628 0.63276,-0.89331 0.70721,-1.19108c0.07444,-0.29777 0.33499,-0.62036 0.78165,-0.96776c0.49628,0.19851 0.74443,0.66998 0.74443,1.41441c-0.49628,1.53848 -1.48885,3.18863 -2.97771,4.95044c-1.48885,1.76181 -3.25067,3.26307 -5.28543,4.50379c-2.82882,1.63774 -5.2234,2.45661 -7.18372,2.45661c-1.96033,0 -3.85862,-0.66998 -5.69487,-2.00995c-1.83625,-1.33997 -3.34992,-3.69732 -4.54101,-7.07206M136.13263,241.69963c-2.13403,0 -4.11916,1.14146 -5.95542,3.42437c-1.83625,2.28291 -2.75438,4.46656 -2.75438,6.55096c0,0.6948 0.04963,1.19108 0.14889,1.48885c1.83625,-0.99257 3.72214,-2.69235 5.65765,-5.09933c1.93551,-2.40698 2.90327,-4.5286 2.90327,-6.36485z" data-paper-data="{&quot;elementType&quot;:&quot;letter&quot;,&quot;baseline&quot;:31.4453125,&quot;baselineProportion&quot;:0.9498525073746312,&quot;fontSize&quot;:100}"></path><path d="M163.40428,258.15148c0.04963,1.14146 0.91813,1.71218 2.6055,1.71218c0.99257,0 2.10921,-0.19851 3.34992,-0.59554c1.24071,-0.39703 2.4442,-0.64517 3.61047,-0.74443c1.16627,-0.09926 1.7494,0.19851 1.7494,0.89331c-2.0844,1.3896 -4.96285,2.20847 -8.63536,2.45661c-0.19851,0.04963 -0.39703,0.07444 -0.59554,0.07444c-1.3896,0 -2.46902,-0.33499 -3.23826,-1.00498c-0.76924,-0.66998 -1.15386,-1.402 -1.15386,-2.19606c0,-0.79406 0.04963,-1.46404 0.14889,-2.00995c0,-1.09183 0.23574,-2.67994 0.70721,-4.76434c0.47147,-2.0844 0.70721,-3.64769 0.70721,-4.68989c-0.89331,0 -2.41939,0.18611 -4.57823,0.55832c-2.15884,0.37221 -3.70973,0.70721 -4.65267,1.00498c-1.24071,6.20356 -3.39955,10.32273 -6.47652,12.35749c-0.89331,0.59554 -1.5757,0.89331 -2.04718,0.89331c-0.47147,0 -0.81887,-0.11166 -1.0422,-0.33499c-0.22333,-0.22333 -0.33499,-0.49628 -0.33499,-0.81887c0,-0.32259 0.22333,-0.75683 0.66998,-1.30275c1.53848,0.09926 2.67994,-0.64517 3.42437,-2.23328c0.74443,-1.48885 1.35238,-3.08937 1.82385,-4.80156c0.47147,-1.71218 0.85609,-2.9653 1.15386,-3.75936c-2.33254,-0.94294 -3.49881,-2.13403 -3.49881,-3.57325c0,-2.63031 1.14146,-4.41694 3.42437,-5.35988c0.79406,-0.29777 1.58811,-0.44666 2.38217,-0.44666c0.79406,0 1.52608,0.27296 2.19606,0.81887c0.66998,0.54591 1.00498,1.31516 1.00498,2.30772c0,0.99257 -0.64517,2.35735 -1.93551,4.09435c0.14889,0 1.0422,-0.19851 2.67994,-0.59554c4.51619,-1.19108 7.24576,-1.78663 8.1887,-1.78663c0,1.53848 -0.27296,3.85862 -0.81887,6.9604c-0.54591,3.10178 -0.81887,5.3971 -0.81887,6.88595M152.23787,241.47631c-0.94294,0 -1.737,1.01738 -2.38217,3.05215c0,0.89331 0.71961,1.61293 2.15884,2.15884c1.0422,-1.0422 1.5633,-2.05958 1.5633,-3.05215c0,-0.39703 -0.11166,-0.85609 -0.33499,-1.37719c-0.22333,-0.5211 -0.55832,-0.78165 -1.00498,-0.78165z" data-paper-data="{&quot;elementType&quot;:&quot;letter&quot;,&quot;baseline&quot;:30.76171875,&quot;baselineProportion&quot;:1.0361842105263157,&quot;fontSize&quot;:100}"></path><path d="M183.8272,255.17377c0,-0.89331 0.01241,-2.4442 0.03722,-4.65267c0.02481,-2.20847 0.03722,-4.10676 0.03722,-5.69487c-1.3896,0.29777 -3.41196,2.0844 -6.06708,5.35988c-2.65512,3.27548 -4.10676,4.98766 -4.3549,5.13655c-1.93551,2.58068 -3.44918,4.41694 -4.54101,5.50876c-0.44666,0.59554 -1.16627,0.89331 -2.15884,0.89331v-1.63774l3.20104,-10.34754c0,-3.62288 0.62036,-6.30282 1.86107,-8.03982c0.3474,-0.49628 0.66998,-0.74443 0.96776,-0.74443c0.49628,0 0.74443,0.83128 0.74443,2.49383c0,1.66255 -0.24814,3.49881 -0.74443,5.50876c-0.49628,2.00995 -0.74443,3.68492 -0.74443,5.02488c0.39703,-0.39703 1.58811,-1.78663 3.57325,-4.16879c1.98514,-2.38217 3.17622,-3.77177 3.57325,-4.16879c0.3474,-0.19851 0.94294,-0.6948 1.78663,-1.48885c1.78663,-1.58811 3.34992,-2.38217 4.68989,-2.38217c0.74443,0 1.2159,0.24814 1.41441,0.74443c0.04963,0.54591 0.07444,1.42682 0.07444,2.64272c0,1.2159 -0.19851,3.12659 -0.59554,5.73209c-0.39703,2.6055 -0.62036,4.67749 -0.66998,6.21597c0,2.33254 0.96776,3.49881 2.90327,3.49881c1.3896,0 2.72957,-0.38462 4.01991,-1.15386c1.29034,-0.76924 2.33254,-1.63774 3.12659,-2.6055c0.79406,-0.96776 1.71218,-2.0844 2.75438,-3.34992c1.0422,-1.26553 1.96033,-2.19606 2.75438,-2.7916v0.74443c0,2.38217 -1.53848,4.85119 -4.61545,7.40705c-3.07697,2.55587 -5.88098,3.8338 -8.41203,3.8338h-2.45661c-0.74443,-0.49628 -1.22831,-0.96776 -1.45163,-1.41441c-0.22333,-0.44666 -0.38462,-0.76924 -0.48388,-0.96776c-0.09926,-0.19851 -0.16129,-0.50869 -0.18611,-0.93053c-0.02481,-0.42184 -0.03722,-0.73202 -0.03722,-0.93053z" data-paper-data="{&quot;elementType&quot;:&quot;letter&quot;,&quot;baseline&quot;:28.80859375,&quot;baselineProportion&quot;:1.0102739726027397,&quot;fontSize&quot;:100}"></path><path d="M193.67925,255.09933c-0.04963,-0.44666 -0.07444,-0.8685 -0.07444,-1.26553c0,-3.17622 1.05461,-6.4517 3.16382,-9.82644c2.10921,-3.37474 4.82637,-5.06211 8.15148,-5.06211c0.64517,0 1.16627,0.18611 1.5633,0.55832c0.39703,0.37221 0.59554,0.99257 0.59554,1.86107c0,0.8685 -0.23574,1.88588 -0.70721,3.05215c-0.47147,1.16627 -1.19108,2.34495 -2.15884,3.53603c-0.96776,1.19108 -1.79903,2.15884 -2.49383,2.90327c-0.6948,0.74443 -1.67496,1.71218 -2.94049,2.90327c-1.26553,1.19108 -2.02236,1.9107 -2.2705,2.15884c-0.04963,0.39703 -0.07444,0.62036 -0.07444,0.66998c0,1.33997 0.64517,2.38217 1.93551,3.12659c1.29034,0.74443 2.63031,1.11664 4.01991,1.11664c3.32511,0 5.96783,-0.59554 7.92815,-1.78663c1.96033,-1.19108 4.23083,-3.20104 6.81151,-6.02986c0.39703,-0.49628 0.63276,-0.89331 0.70721,-1.19108c0.07444,-0.29777 0.33499,-0.62036 0.78165,-0.96776c0.49628,0.19851 0.74443,0.66998 0.74443,1.41441c-0.49628,1.53848 -1.48885,3.18863 -2.97771,4.95044c-1.48885,1.76181 -3.25067,3.26307 -5.28543,4.50379c-2.82882,1.63774 -5.2234,2.45661 -7.18372,2.45661c-1.96033,0 -3.85862,-0.66998 -5.69487,-2.00995c-1.83625,-1.33997 -3.34992,-3.69732 -4.54101,-7.07206M205.06899,241.69963c-2.13403,0 -4.11916,1.14146 -5.95542,3.42437c-1.83625,2.28291 -2.75438,4.46656 -2.75438,6.55096c0,0.6948 0.04963,1.19108 0.14889,1.48885c1.83625,-0.99257 3.72214,-2.69235 5.65765,-5.09933c1.93551,-2.40698 2.90327,-4.5286 2.90327,-6.36485z" data-paper-data="{&quot;elementType&quot;:&quot;letter&quot;,&quot;baseline&quot;:31.4453125,&quot;baselineProportion&quot;:0.9498525073746312,&quot;fontSize&quot;:100}"></path><path d="M213.95328,247.13395l-0.89331,0.22333c-0.14889,0.14889 -0.57073,0.27296 -1.26553,0.37221c-0.6948,0.09926 -1.36478,0.09926 -2.00995,0c-0.64517,-0.09926 -0.94294,-0.3474 -0.89331,-0.74443c-0.09926,-1.43923 0.81887,-2.0844 2.75438,-1.93551c2.03477,0.14889 3.22585,-0.49628 3.57325,-1.93551l3.49881,-13.32525l1.41441,-1.41441c0.49628,0.14889 0.74443,0.59554 0.74443,1.33997l-0.07444,0.74443l-3.49881,14.06968v0.37221c0.39703,0.14889 0.99257,0.22333 1.78663,0.22333c0.79406,0 2.20847,-0.28536 4.24324,-0.85609c2.03477,-0.57073 3.20104,-0.85609 3.49881,-0.85609c0,2.72957 -1.83625,4.09435 -5.50876,4.09435c-1.14146,0 -2.4318,-0.12407 -3.87102,-0.37221c-1.09183,2.48142 -1.63774,4.75193 -1.63774,6.81151c0,2.05958 0.54591,3.94547 1.63774,5.65765c1.09183,1.71218 2.7792,2.56827 5.06211,2.56827c2.33254,-0.3474 4.13157,-0.90572 5.3971,-1.67496c1.26553,-0.76924 2.19606,-1.31516 2.7916,-1.63774c0.59554,-0.32259 1.19108,-0.48388 1.78663,-0.48388c0.59554,0 1.24071,0.07444 1.93551,0.22333c-1.3896,2.48142 -5.40951,4.11916 -12.05972,4.91322c-0.14889,0 -0.27296,0 -0.37221,0c-3.42437,0 -5.73209,-1.26553 -6.92317,-3.79658c-0.89331,-1.83625 -1.33997,-3.95787 -1.33997,-6.36485c0,-2.40698 0.07444,-4.47897 0.22333,-6.21597z" data-paper-data="{&quot;elementType&quot;:&quot;letter&quot;,&quot;baseline&quot;:45.3125,&quot;baselineProportion&quot;:0.9830508474576272,&quot;fontSize&quot;:100}"></path></g><g data-paper-data="{&quot;baselineProportion&quot;:0.48663101604278075,&quot;fontSize&quot;:100,&quot;baseline&quot;:35.546875,&quot;elementType&quot;:&quot;word&quot;}"><path d="M268.99207,241.84852l0.14889,2.82882c0,1.0422 -0.06204,1.84866 -0.18611,2.41939c-0.12407,0.57073 -0.21092,1.00498 -0.26055,1.30275c-0.04963,0.29777 -0.1737,0.68239 -0.37221,1.15386c-0.19851,0.47147 -0.32259,0.80646 -0.37221,1.00498c-0.04963,0.19851 -0.22333,0.57073 -0.5211,1.11664c-0.29777,0.54591 -0.48388,0.89331 -0.55832,1.0422c-0.07444,0.14889 -0.29777,0.55832 -0.66998,1.22831c-0.37221,0.66998 -0.60795,1.10423 -0.70721,1.30275h1.48885c2.87845,0 7.09687,-1.3896 12.65527,-4.16879l0.59554,0.66998c-4.76434,3.82139 -10.37235,5.90579 -16.82406,6.25319l-6.55096,4.01991c-0.59554,0.49628 -1.89829,0.74443 -3.90824,0.74443c-2.00995,0 -3.30029,-0.55832 -3.87102,-1.67496c-0.57073,-1.11664 -0.85609,-2.86605 -0.85609,-5.24821c0,-2.38217 1.00498,-5.08692 3.01493,-8.11426c2.00995,-3.02734 4.33009,-4.54101 6.9604,-4.54101c1.19108,0 1.96033,0.49628 2.30772,1.48885c-2.7792,0.84368 -5.16136,2.30772 -7.1465,4.39212c-1.98514,2.0844 -2.97771,4.49138 -2.97771,7.22095c0,0.94294 0.04963,1.68737 0.14889,2.23328c0.09926,0.54591 0.37221,1.0422 0.81887,1.48885c0.44666,0.44666 1.31516,0.66998 2.6055,0.66998c2.67994,0 4.86359,-1.11664 6.55096,-3.34992c-0.49628,-0.84368 -0.74443,-2.22087 -0.74443,-4.13157c0,-1.9107 0.16129,-3.72214 0.48388,-5.43432c0.32259,-1.71218 0.98016,-3.36233 1.97273,-4.95044c0.99257,-1.58811 2.23328,-2.38217 3.72214,-2.38217c1.48885,0 2.50624,0.47147 3.05215,1.41441M267.05656,245.34733l0.07444,-0.96776c0,-0.99257 -0.29777,-1.58811 -0.89331,-1.78663c-1.29034,0.74443 -2.33254,2.0844 -3.12659,4.01991c-0.79406,1.93551 -1.19108,3.72214 -1.19108,5.35988c0,1.63774 0.24814,2.50624 0.74443,2.6055c1.3896,-0.79406 2.46902,-2.0844 3.23826,-3.87102c0.76924,-1.78663 1.15386,-3.52362 1.15386,-5.21099z" data-paper-data="{&quot;elementType&quot;:&quot;letter&quot;,&quot;baseline&quot;:29.4921875,&quot;baselineProportion&quot;:1.0066666666666666,&quot;fontSize&quot;:100}"></path><path d="M269.01768,280.70763c0,-3.37474 0.1737,-6.29041 0.5211,-8.74702c0.3474,-2.45661 1.09183,-5.79413 2.23328,-10.01255l10.64531,-26.1294c0.19851,0 0.37221,0 0.5211,0c1.98514,0 2.97771,1.2159 2.97771,3.64769c0,3.52362 -1.53848,7.91574 -4.61545,13.17636c-1.88588,3.22585 -3.59807,5.38469 -5.13655,6.47652c0.54591,2.38217 2.55587,3.57325 6.02986,3.57325c4.36731,0 8.68499,-1.43923 12.95304,-4.31768c0.44666,-0.29777 0.83128,-0.65758 1.15386,-1.07942c0.32259,-0.42184 0.60795,-0.73202 0.85609,-0.93053c0.24814,-0.19851 0.64517,-0.29777 1.19108,-0.29777c0,1.58811 -1.24071,3.139 -3.72214,4.65267c-2.48142,1.51367 -5.0497,2.66753 -7.70482,3.46159c-2.65512,0.79406 -4.80156,1.24071 -6.4393,1.33997c0,0.89331 0.22333,2.19606 0.66998,3.90824c0.44666,1.71218 0.66998,3.20104 0.66998,4.46656c0,1.26553 -0.33499,3.26307 -1.00498,5.99264c-0.66998,2.72957 -1.71218,5.34747 -3.12659,7.85371c-1.41441,2.50624 -2.9653,3.75936 -4.65267,3.75936c-2.67994,0 -4.01991,-3.59807 -4.01991,-10.7942M271.10208,279.88876c0,5.90579 0.8685,8.85869 2.6055,8.85869c1.29034,0 2.6179,-2.12162 3.98269,-6.36485c1.36478,-4.24324 2.04718,-7.44427 2.04718,-9.60311c0,-2.15884 -0.32259,-3.94547 -0.96776,-5.35988c-0.64517,-1.41441 -2.00995,-2.56827 -4.09435,-3.46159c-1.24071,0.79406 -2.14643,2.92808 -2.71716,6.40208c-0.57073,3.47399 -0.85609,6.65022 -0.85609,9.52867M278.24858,251.97273v0.74443c1.33997,-1.53848 2.50624,-3.39955 3.49881,-5.58321c0.99257,-2.18365 1.48885,-4.16879 1.48885,-5.95542c0,-0.09926 -0.01241,-0.29777 -0.03722,-0.59554c-0.02481,-0.29777 -0.03722,-0.47147 -0.03722,-0.5211l-0.74443,0.66998z" data-paper-data="{&quot;elementType&quot;:&quot;letter&quot;,&quot;baseline&quot;:35.546875,&quot;baselineProportion&quot;:0.48663101604278075,&quot;fontSize&quot;:100}"></path></g><g data-paper-data="{&quot;baselineProportion&quot;:0.5834990059642147,&quot;fontSize&quot;:100,&quot;baseline&quot;:57.32421875,&quot;elementType&quot;:&quot;word&quot;}"><path d="M317.215,247.13395l-0.89331,0.22333c-0.14889,0.14889 -0.57073,0.27296 -1.26553,0.37221c-0.6948,0.09926 -1.36478,0.09926 -2.00995,0c-0.64517,-0.09926 -0.94294,-0.3474 -0.89331,-0.74443c-0.09926,-1.43923 0.81887,-2.0844 2.75438,-1.93551c2.03477,0.14889 3.22585,-0.49628 3.57325,-1.93551l3.49881,-13.32525l1.41441,-1.41441c0.49628,0.14889 0.74443,0.59554 0.74443,1.33997l-0.07444,0.74443l-3.49881,14.06968v0.37221c0.39703,0.14889 0.99257,0.22333 1.78663,0.22333c0.79406,0 2.20847,-0.28536 4.24324,-0.85609c2.03477,-0.57073 3.20104,-0.85609 3.49881,-0.85609c0,2.72957 -1.83625,4.09435 -5.50876,4.09435c-1.14146,0 -2.4318,-0.12407 -3.87102,-0.37221c-1.09183,2.48142 -1.63774,4.75193 -1.63774,6.81151c0,2.05958 0.54591,3.94547 1.63774,5.65765c1.09183,1.71218 2.7792,2.56827 5.06211,2.56827c2.33254,-0.3474 4.13157,-0.90572 5.3971,-1.67496c1.26553,-0.76924 2.19606,-1.31516 2.7916,-1.63774c0.59554,-0.32259 1.19108,-0.48388 1.78663,-0.48388c0.59554,0 1.24071,0.07444 1.93551,0.22333c-1.3896,2.48142 -5.40951,4.11916 -12.05972,4.91322c-0.14889,0 -0.27296,0 -0.37221,0c-3.42437,0 -5.73209,-1.26553 -6.92317,-3.79658c-0.89331,-1.83625 -1.33997,-3.95787 -1.33997,-6.36485c0,-2.40698 0.07444,-4.47897 0.22333,-6.21597z" data-paper-data="{&quot;elementType&quot;:&quot;letter&quot;,&quot;baseline&quot;:45.3125,&quot;baselineProportion&quot;:0.9830508474576272,&quot;fontSize&quot;:100}"></path><path d="M359.22631,259.49145c-2.67994,1.93551 -5.60802,2.90327 -8.78424,2.90327c-1.63774,0 -2.9653,-0.49628 -3.98269,-1.48885c-1.01738,-0.99257 -1.65015,-2.24569 -1.89829,-3.75936c-0.24814,-1.51367 -0.40944,-2.87845 -0.48388,-4.09435c-0.07444,-1.2159 -0.11166,-2.23328 -0.11166,-3.05215c0,-0.81887 0.04963,-1.67496 0.14889,-2.56827c-0.14889,-0.54591 -0.83128,-0.81887 -2.04718,-0.81887c-1.2159,0 -2.39457,0.62036 -3.53603,1.86107c-1.14146,1.24071 -2.07199,2.71716 -2.7916,4.42934c-0.71961,1.71218 -1.41441,3.41196 -2.0844,5.09933c-0.66998,1.68737 -1.30275,2.9529 -1.89829,3.79658c-0.59554,0.84368 -1.09183,1.26553 -1.48885,1.26553c-0.39703,0 -0.6948,-0.04963 -0.89331,-0.14889c-0.04963,-0.29777 -0.07444,-0.64517 -0.07444,-1.0422c0,-2.48142 0.8685,-7.81649 2.6055,-16.00519c1.737,-8.1887 3.44918,-15.21113 5.13655,-21.06729c0.09926,-0.3474 0.38462,-1.10423 0.85609,-2.2705c0.47147,-1.16627 0.98016,-2.00995 1.52608,-2.53105c0.54591,-0.5211 1.11664,-0.78165 1.71218,-0.78165c0.59554,0 1.06701,0.12407 1.41441,0.37221v-0.14889c0.49628,0.3474 0.89331,1.19108 1.19108,2.53105c0.29777,1.33997 0.44666,2.40698 0.44666,3.20104c0,4.66508 -1.2159,8.93313 -3.64769,12.80415c-0.99257,1.58811 -1.98514,3.07697 -2.97771,4.46656c-0.99257,1.3896 -1.77422,2.70475 -2.34495,3.94547c-0.57073,1.24071 -0.85609,2.15884 -0.85609,2.75438c0,0.59554 0,0.96776 0,1.11664c2.72957,-3.82139 5.63283,-5.73209 8.7098,-5.73209c1.09183,0 1.88588,0.12407 2.38217,0.37221c0.39703,0.24814 0.64517,0.58313 0.74443,1.00498c0.09926,0.42184 0.16129,1.48885 0.18611,3.20104c0.02481,1.71218 0.09926,3.17622 0.22333,4.39212c0.12407,1.2159 0.33499,2.50624 0.63276,3.87102c0.29777,1.36478 0.70721,2.24569 1.22831,2.64272c0.5211,0.39703 1.00498,0.59554 1.45163,0.59554c0.44666,0 0.91813,-0.12407 1.41441,-0.37221c4.36731,-2.13403 7.24576,-3.20104 8.63536,-3.20104c0.64517,0 0.96776,0.19851 0.96776,0.59554c0,0.39703 -0.57073,1.01738 -1.71218,1.86107M339.12677,225.69445c-1.83625,7.09687 -2.76679,11.12919 -2.7916,12.09694c-0.02481,0.96776 -0.03722,1.50126 -0.03722,1.60052l0.07444,1.0422c2.33254,-0.94294 3.99509,-5.06211 4.98766,-12.35749c0.29777,-2.13403 0.44666,-3.87102 0.44666,-5.21099c0,-1.33997 -0.22333,-2.00995 -0.66998,-2.00995c-0.44666,0 -1.11664,1.61293 -2.00995,4.83878z" data-paper-data="{&quot;elementType&quot;:&quot;letter&quot;,&quot;baseline&quot;:57.32421875,&quot;baselineProportion&quot;:0.9966044142614601,&quot;fontSize&quot;:100}"></path><path d="M355.15757,246.98507l0.29777,-0.96776c0.99257,-3.17622 1.83625,-4.76434 2.53105,-4.76434c0.99257,0 1.48885,0.37221 1.48885,1.11664c0,0.14889 -0.02481,0.29777 -0.07444,0.44666c-1.88588,4.61545 -2.82882,9.00757 -2.82882,13.17636c0,1.88588 0.47147,3.46159 1.41441,4.72711c0.94294,1.26553 2.38217,1.89829 4.31768,1.89829c4.86359,-1.88588 7.91574,-2.82882 9.15646,-2.82882c0.39703,0 0.59554,0.09926 0.59554,0.29777c0,0.59554 -1.29034,1.45163 -3.87102,2.56827c-2.58068,1.11664 -4.60304,1.67496 -6.06708,1.67496c-1.46404,0 -2.56827,-0.11166 -3.3127,-0.33499c-0.74443,-0.22333 -1.29034,-0.43425 -1.63774,-0.63276c-0.3474,-0.19851 -0.76924,-0.63276 -1.26553,-1.30275c-0.49628,-0.66998 -0.81887,-1.5633 -0.96776,-2.67994c-0.14889,-1.11664 -0.22333,-2.71716 -0.22333,-4.80156c0,-2.0844 0.14889,-4.61545 0.44666,-7.59316M362.97406,230.68211z" data-paper-data="{&quot;elementType&quot;:&quot;letter&quot;,&quot;baseline&quot;:42.28515625,&quot;baselineProportion&quot;:0.9579646017699115,&quot;fontSize&quot;:100}"></path><path d="M381.31258,255.17377c0,-0.89331 0.01241,-2.4442 0.03722,-4.65267c0.02481,-2.20847 0.03722,-4.10676 0.03722,-5.69487c-1.3896,0.29777 -3.41196,2.0844 -6.06708,5.35988c-2.65512,3.27548 -4.10676,4.98766 -4.3549,5.13655c-1.93551,2.58068 -3.44918,4.41694 -4.54101,5.50876c-0.44666,0.59554 -1.16627,0.89331 -2.15884,0.89331v-1.63774l3.20104,-10.34754c0,-3.62288 0.62036,-6.30282 1.86107,-8.03982c0.3474,-0.49628 0.66998,-0.74443 0.96776,-0.74443c0.49628,0 0.74443,0.83128 0.74443,2.49383c0,1.66255 -0.24814,3.49881 -0.74443,5.50876c-0.49628,2.00995 -0.74443,3.68492 -0.74443,5.02488c0.39703,-0.39703 1.58811,-1.78663 3.57325,-4.16879c1.98514,-2.38217 3.17622,-3.77177 3.57325,-4.16879c0.3474,-0.19851 0.94294,-0.6948 1.78663,-1.48885c1.78663,-1.58811 3.34992,-2.38217 4.68989,-2.38217c0.74443,0 1.2159,0.24814 1.41441,0.74443c0.04963,0.54591 0.07444,1.42682 0.07444,2.64272c0,1.2159 -0.19851,3.12659 -0.59554,5.73209c-0.39703,2.6055 -0.62036,4.67749 -0.66998,6.21597c0,2.33254 0.96776,3.49881 2.90327,3.49881c1.3896,0 2.72957,-0.38462 4.01991,-1.15386c1.29034,-0.76924 2.33254,-1.63774 3.12659,-2.6055c0.79406,-0.96776 1.71218,-2.0844 2.75438,-3.34992c1.0422,-1.26553 1.96033,-2.19606 2.75438,-2.7916v0.74443c0,2.38217 -1.53848,4.85119 -4.61545,7.40705c-3.07697,2.55587 -5.88098,3.8338 -8.41203,3.8338h-2.45661c-0.74443,-0.49628 -1.22831,-0.96776 -1.45163,-1.41441c-0.22333,-0.44666 -0.38462,-0.76924 -0.48388,-0.96776c-0.09926,-0.19851 -0.16129,-0.50869 -0.18611,-0.93053c-0.02481,-0.42184 -0.03722,-0.73202 -0.03722,-0.93053z" data-paper-data="{&quot;elementType&quot;:&quot;letter&quot;,&quot;baseline&quot;:28.80859375,&quot;baselineProportion&quot;:1.0102739726027397,&quot;fontSize&quot;:100}"></path><path d="M408.65867,247.05951l-0.59554,15.3352c0,0.04963 0.01241,0.27296 0.03722,0.66998c0.02481,0.39703 0.03722,0.64517 0.03722,0.74443c1.48885,-0.59554 3.69732,-1.7494 6.6254,-3.46159c2.92808,-1.71218 5.63283,-2.91567 8.11426,-3.61047c0.49628,0.29777 0.74443,0.66998 0.74443,1.11664c0,0.09926 -1.14146,0.6948 -3.42437,1.78663c-7.1465,3.47399 -11.41455,6.02986 -12.80415,7.6676c-0.74443,7.64279 -1.35238,12.60564 -1.82385,14.88855c-0.47147,2.28291 -0.76924,3.73454 -0.89331,4.3549c-0.12407,0.62036 -0.40944,1.52608 -0.85609,2.71716c-0.44666,1.19108 -0.91813,2.05958 -1.41441,2.6055c-1.33997,1.48885 -2.87845,2.23328 -4.61545,2.23328c-1.737,0 -3.43677,-0.33499 -5.09933,-1.00498c-1.66255,-0.66998 -2.86605,-1.52608 -3.61047,-2.56827c-0.09926,-0.49628 -0.14889,-1.31516 -0.14889,-2.45661c0,-3.67251 1.96033,-7.89093 5.88098,-12.65527c0.29777,-0.24814 1.2159,-0.99257 2.75438,-2.23328c4.11916,-3.32511 6.47652,-5.28543 7.07206,-5.88098c0.49628,-0.84368 0.74443,-2.48142 0.74443,-4.91322c0,-0.14889 -0.01241,-0.62036 -0.03722,-1.41441c-0.02481,-0.79406 -0.03722,-1.26553 -0.03722,-1.41441c-3.57325,2.38217 -6.55096,3.57325 -8.93313,3.57325c-2.0844,-0.09926 -3.59807,-1.26553 -4.54101,-3.49881c-0.39703,-0.99257 -0.59554,-2.19606 -0.59554,-3.61047c0,-1.41441 0.64517,-3.06456 1.93551,-4.95044c2.0844,-2.97771 5.53358,-5.16136 10.34754,-6.55096c3.42437,0 5.13655,0.84368 5.13655,2.53105M391.16463,287.77969c0,1.24071 0.6948,2.24569 2.0844,3.01493c1.3896,0.76924 2.81642,1.15386 4.28046,1.15386c1.46404,0 2.72957,-0.88091 3.79658,-2.64272c1.06701,-1.76181 1.79903,-3.95787 2.19606,-6.58818c0.74443,-4.41694 1.11664,-8.03982 1.11664,-10.86864v-1.71218c-3.27548,2.13403 -6.34004,4.85119 -9.19368,8.15148c-2.85364,3.30029 -4.28046,6.46411 -4.28046,9.49145M393.99345,259.26812c0,1.19108 0.89331,1.78663 2.67994,1.78663c3.02734,-0.09926 5.35988,-1.29034 6.99762,-3.57325c1.63774,-2.28291 2.45661,-4.26805 2.45661,-5.95542c0,-0.14889 0,-0.29777 0,-0.44666v-0.74443c0,-1.09183 -0.24814,-1.97273 -0.74443,-2.64272c-0.49628,-0.66998 -1.19108,-1.00498 -2.0844,-1.00498c-0.19851,-0.04963 -0.42184,-0.07444 -0.66998,-0.07444c-2.23328,0 -4.28046,1.26553 -6.14153,3.79658c-1.86107,2.53105 -2.7916,4.78915 -2.7916,6.77429c0,0.6948 0.09926,1.3896 0.29777,2.0844z" data-paper-data="{&quot;elementType&quot;:&quot;letter&quot;,&quot;baseline&quot;:24.12109375,&quot;baselineProportion&quot;:0.3708708708708709,&quot;fontSize&quot;:100}"></path><path d="M420.37179,255.24821h0.74443c0.64517,-0.44666 1.9231,-1.45163 3.8338,-3.01493c1.9107,-1.5633 2.97771,-2.4318 3.20104,-2.6055c0.22333,-0.1737 1.65015,-1.5757 4.28046,-4.20601c0.19851,-0.24814 0.49628,-0.76924 0.89331,-1.5633c0.84368,-1.78663 1.83625,-2.67994 2.97771,-2.67994c0.6948,0 1.0422,0.35981 1.0422,1.07942c0,0.71961 -0.24814,1.52608 -0.74443,2.41939c-0.49628,0.89331 -0.74443,1.58811 -0.74443,2.0844v13.92079c4.06954,0 6.84873,-0.79406 8.33759,-2.38217c0.59554,-0.59554 1.42682,-1.48885 2.49383,-2.67994c1.06701,-1.19108 2.17125,-2.23328 3.3127,-3.12659v0.74443c0,1.737 -1.06701,3.51122 -3.20104,5.32266c-2.13403,1.81144 -4.36731,3.139 -6.69985,3.98269c-2.33254,0.84368 -3.94547,1.26553 -4.83878,1.26553c-0.89331,0 -1.51367,-0.02481 -1.86107,-0.07444c-1.33997,0 -2.6055,-0.23574 -3.79658,-0.70721c-1.19108,-0.47147 -2.56827,-1.17868 -4.13157,-2.12162c-1.5633,-0.94294 -2.81642,-1.63774 -3.75936,-2.0844c-2.0844,1.3896 -3.78417,2.0844 -5.09933,2.0844c-1.31516,0 -1.97273,-0.27296 -1.97273,-0.81887c0,-0.24814 0.23574,-0.62036 0.70721,-1.11664c0.47147,-0.49628 1.47645,-1.01738 3.01493,-1.5633l-1.41441,-2.15884c-0.24814,-0.19851 -0.22333,-0.35981 0.07444,-0.48388c0.29777,-0.12407 0.5211,-0.18611 0.66998,-0.18611l1.26553,0.29777c0.89331,0.24814 1.36478,0.37221 1.41441,0.37221M424.61503,256.66262c0.54591,1.09183 1.83625,2.00995 3.87102,2.75438c2.03477,0.74443 3.87102,1.11664 5.50876,1.11664c0,-4.31768 -0.29777,-8.1887 -0.89331,-11.61307c-1.09183,0.64517 -1.78663,1.10423 -2.0844,1.37719c-0.29777,0.27296 -1.33997,1.32756 -3.12659,3.16382c-1.78663,1.83625 -2.87845,2.90327 -3.27548,3.20104z" data-paper-data="{&quot;elementType&quot;:&quot;letter&quot;,&quot;baseline&quot;:28.515625,&quot;baselineProportion&quot;:0.9605263157894737,&quot;fontSize&quot;:100}"></path></g></g></g></g></g></svg>