<svg version="1.1" xmlns="http://www.w3.org/2000/svg" xmlns:xlink="http://www.w3.org/1999/xlink" width="500" height="500"><g data-paper-data="{&quot;description&quot;:&quot;Logo for Member\n===============\n\nThis logo was generated by MarkMaker at http://emblemmatic.org/markmaker/ and may be composed of elements designed by others.\n\nThe font is UnifrakturCook designed by j. 'mach' wust and released under the OFL license via Google Fonts: https://www.google.com/fonts/specimen/UnifrakturCook. The font includes this copyright statement: Copyright (c) 2010 j. 'mach' wust (j.mach.wust@gmail.com) with Reserved Font Name UnifrakturCook. Copyright (c) 2009 Peter Wiegel (wiegel@peter-wiegel.de). This Font Software is licensed under the SIL Open Font License, Version 1.1.\n\nMarkMaker uses semantic data from the Princeton University WordNet database http://wordnet.princeton.edu and font descriptions from Google Fonts https://www.google.com/fonts.&quot;}" fill="#072525" fill-rule="nonzero" stroke="none" stroke-width="1" stroke-linecap="butt" stroke-linejoin="miter" stroke-miterlimit="10" stroke-dasharray="" stroke-dashoffset="0" font-family="none" font-weight="none" font-size="none" text-anchor="none" style="mix-blend-mode: normal"><g data-paper-data="{&quot;elementType&quot;:&quot;logo&quot;}"><g data-paper-data="{&quot;elementType&quot;:&quot;text&quot;}"><g data-paper-data="{&quot;baseline&quot;:74.951171875,&quot;elementType&quot;:&quot;row&quot;}"><g data-paper-data="{&quot;baselineProportion&quot;:1.0092044707429322,&quot;fontSize&quot;:100,&quot;baseline&quot;:74.951171875,&quot;elementType&quot;:&quot;word&quot;}"><path d="M80.31153,382.55941l8.75183,-10.95818l18.82747,13.89997l11.10527,-13.89997l23.46079,16.98885l-2.20634,8.67829l-0.95608,23.68143c0,0.24515 0,0.46578 0,0.6619c0,2.3044 0.73545,4.21657 2.20634,5.7365c1.4709,1.51993 3.13791,2.67213 5.00105,3.45661l-14.70896,17.94493c-3.62821,-2.84373 -6.41066,-5.36877 -8.34734,-7.57512c-1.93668,-2.20634 -2.90502,-6.74161 -2.90502,-13.60579c0,-0.4903 0,-1.00511 0,-1.54444l0.51481,-27.21158c0,-1.96119 -2.6231,-5.17265 -7.86929,-9.63437l-3.01534,5.22168l-1.10317,26.54968c0,0.14709 0,0.29418 0,0.44127c0,2.40246 0.73545,4.37592 2.20634,5.92036c1.4709,1.54444 3.16243,2.7089 5.07459,3.49338l-14.70896,17.94493l-15.66504,-12.57616c2.7947,-3.285 4.24108,-6.66806 4.33914,-10.14918l0.44127,-27.21158c0,-2.15731 -2.86825,-5.56489 -8.60474,-10.22273l-4.33914,5.14814l-0.6619,27.21158c-0.04903,2.59858 0.67416,4.69461 2.16957,6.28808c1.49541,1.59347 3.1992,2.78245 5.11136,3.56692l-14.70896,17.94493l-15.51795,-12.57616c2.7947,-3.38306 4.19205,-6.76612 4.19205,-10.14918l0.58836,-33.38934c0,-2.35343 -1.81411,-4.70687 -5.44232,-7.0603l11.10527,-13.97351l15.66504,10.88463z" data-paper-data="{&quot;elementType&quot;:&quot;letter&quot;,&quot;baseline&quot;:52.734375,&quot;baselineProportion&quot;:1.0295519542421354,&quot;fontSize&quot;:100}"></path><path d="M179.25225,448.74974l-35.22796,-14.04706c1.32381,-7.35448 1.98571,-15.0154 1.98571,-22.98275c0,-7.96735 -0.75996,-16.29018 -2.27989,-24.96846l25.37296,-14.9296v-0.22063l0.14709,0.07354h0.07354l28.60893,20.519l-29.78565,31.33009c2.01022,2.40246 4.24108,3.72627 6.69258,3.97142c2.45149,0.24515 4.47398,0.36772 6.06745,0.36772c1.59347,0 3.48112,-0.0858 5.66295,-0.25741c2.18183,-0.1716 4.86621,-0.30644 8.05316,-0.4045c-2.59858,3.62821 -5.17265,7.23191 -7.72221,10.81109c-2.54955,3.57918 -5.09911,7.15836 -7.64866,10.73754M167.04381,391.45833c-2.84373,0 -4.2656,3.87336 -4.2656,11.62008c0,4.41269 0.73545,8.82538 2.20634,13.23807c0,0.44127 0.07354,0.80899 0.22063,1.10317l11.84071,-12.50262c0.83351,-0.88254 1.25026,-1.76508 1.25026,-2.64761c0,-0.88254 -0.42901,-2.01022 -1.28703,-3.38306c-0.85802,-1.37284 -1.7283,-2.50052 -2.61084,-3.38306c-3.08888,-2.69664 -5.54038,-4.04496 -7.35448,-4.04496z" data-paper-data="{&quot;elementType&quot;:&quot;letter&quot;,&quot;baseline&quot;:52.734375,&quot;baselineProportion&quot;:1.0295519542421354,&quot;fontSize&quot;:100}"></path><path d="M221.12219,382.55941l8.75183,-10.95818l18.82747,13.89997l11.10527,-13.89997l23.46079,16.98885l-2.20634,8.67829l-0.95608,23.68143c0,0.24515 0,0.46578 0,0.6619c0,2.3044 0.73545,4.21657 2.20634,5.7365c1.4709,1.51993 3.13791,2.67213 5.00105,3.45661l-14.70896,17.94493c-3.62821,-2.84373 -6.41066,-5.36877 -8.34734,-7.57512c-1.93668,-2.20634 -2.90502,-6.74161 -2.90502,-13.60579c0,-0.4903 0,-1.00511 0,-1.54444l0.51481,-27.21158c0,-1.96119 -2.6231,-5.17265 -7.86929,-9.63437l-3.01534,5.22168l-1.10317,26.54968c0,0.14709 0,0.29418 0,0.44127c0,2.40246 0.73545,4.37592 2.20634,5.92036c1.4709,1.54444 3.16243,2.7089 5.07459,3.49338l-14.70896,17.94493l-15.66504,-12.57616c2.7947,-3.285 4.24108,-6.66806 4.33914,-10.14918l0.44127,-27.21158c0,-2.15731 -2.86825,-5.56489 -8.60474,-10.22273l-4.33914,5.14814l-0.6619,27.21158c-0.04903,2.59858 0.67416,4.69461 2.16957,6.28808c1.49541,1.59347 3.1992,2.78245 5.11136,3.56692l-14.70896,17.94493l-15.51795,-12.57616c2.7947,-3.38306 4.19205,-6.76612 4.19205,-10.14918l0.58836,-33.38934c0,-2.35343 -1.81411,-4.70687 -5.44232,-7.0603l11.10527,-13.97351l15.66504,10.88463z" data-paper-data="{&quot;elementType&quot;:&quot;letter&quot;,&quot;baseline&quot;:52.734375,&quot;baselineProportion&quot;:1.0295519542421354,&quot;fontSize&quot;:100}"></path><path d="M284.09949,355.86264l0.80899,-3.45661c9.75694,-3.43209 20.27385,-8.18799 31.55072,-14.26769l4.63332,2.86825c-6.96224,4.16754 -10.46788,12.03683 -10.51691,23.60788l-0.07354,15.15023l12.20844,-9.70791c3.72627,1.56896 7.15836,4.60881 10.29627,9.11956c6.42291,9.21762 10.1737,18.99908 11.25236,29.34438c0.14709,1.22575 0.22063,2.81922 0.22063,4.78041c0,1.96119 -0.53933,3.62821 -1.61799,5.00105l-24.34333,31.69781l-31.55072,-15.66504c1.22575,-2.64761 2.37795,-5.47909 3.45661,-8.49443c1.07866,-3.01534 1.61799,-6.28808 1.61799,-9.81823l-0.58836,-51.0401c0,-3.62821 -2.45149,-6.66806 -7.35448,-9.11956M310.50208,388.51654l-0.22063,31.8449c0.44127,2.45149 2.12054,4.3514 5.03782,5.69972c2.91728,1.34832 4.87847,2.02248 5.88358,2.02248c1.00511,0 1.70379,-0.04903 2.09603,-0.14709c4.21657,-1.07866 6.32485,-3.82433 6.32485,-8.23702c0,-1.07866 -0.12257,-2.25537 -0.36772,-3.53015c-1.66702,-8.23702 -4.08174,-14.46381 -7.24416,-18.68038c-3.16243,-4.21657 -6.99901,-7.20739 -11.50976,-8.97247z" data-paper-data="{&quot;elementType&quot;:&quot;letter&quot;,&quot;baseline&quot;:74.951171875,&quot;baselineProportion&quot;:1.0092044707429322,&quot;fontSize&quot;:100}"></path><path d="M376.127,448.74974l-35.22796,-14.04706c1.32381,-7.35448 1.98571,-15.0154 1.98571,-22.98275c0,-7.96735 -0.75996,-16.29018 -2.27989,-24.96846l25.37296,-14.9296v-0.22063l0.14709,0.07354h0.07354l28.60893,20.519l-29.78565,31.33009c2.01022,2.40246 4.24108,3.72627 6.69258,3.97142c2.45149,0.24515 4.47398,0.36772 6.06745,0.36772c1.59347,0 3.48112,-0.0858 5.66295,-0.25741c2.18183,-0.1716 4.86621,-0.30644 8.05316,-0.4045c-2.59858,3.62821 -5.17265,7.23191 -7.72221,10.81109c-2.54955,3.57918 -5.09911,7.15836 -7.64866,10.73754M363.91856,391.45833c-2.84373,0 -4.2656,3.87336 -4.2656,11.62008c0,4.41269 0.73545,8.82538 2.20634,13.23807c0,0.44127 0.07354,0.80899 0.22063,1.10317l11.84071,-12.50262c0.83351,-0.88254 1.25026,-1.76508 1.25026,-2.64761c0,-0.88254 -0.42901,-2.01022 -1.28703,-3.38306c-0.85802,-1.37284 -1.7283,-2.50052 -2.61084,-3.38306c-3.08888,-2.69664 -5.54038,-4.04496 -7.35448,-4.04496z" data-paper-data="{&quot;elementType&quot;:&quot;letter&quot;,&quot;baseline&quot;:52.734375,&quot;baselineProportion&quot;:1.0295519542421354,&quot;fontSize&quot;:100}"></path><path d="M416.89377,382.33877l9.56083,-9.70791c9.855,6.81515 16.52307,13.72836 20.00419,20.73964l-11.76717,15.73859c-1.32381,-3.87336 -3.12565,-7.28094 -5.40554,-10.22273c-2.27989,-2.94179 -6.06745,-5.95713 -11.36267,-9.04601l-2.42698,3.30952l-1.39735,25.07878c-0.14709,2.54955 1.4709,5.19717 4.85396,7.94284c3.38306,2.74567 6.00616,4.51075 7.86929,5.29523l-12.20844,17.28303l-22.79889,-17.7243c2.74567,-3.285 4.16754,-6.66806 4.2656,-10.14918l-0.14709,-28.24121c-0.14709,-2.35343 -1.96119,-4.70687 -5.44232,-7.0603l11.10527,-13.97351z" data-paper-data="{&quot;elementType&quot;:&quot;letter&quot;,&quot;baseline&quot;:52.734375,&quot;baselineProportion&quot;:1.0295519542421354,&quot;fontSize&quot;:100}"></path></g></g></g></g><g data-paper-data="{&quot;elementType&quot;:&quot;emblem&quot;}"><g data-paper-data="{&quot;baselineProportion&quot;:1.0206117021276595,&quot;fontSize&quot;:100,&quot;baseline&quot;:74.951171875,&quot;elementType&quot;:&quot;word&quot;}"><path d="M181.84169,220.37597l-23.63188,42.45249c-27.26393,-13.77347 -49.0562,-24.90546 -65.37683,-33.39595c20.94323,-19.52814 32.59407,-33.25445 34.95255,-41.17891c0.37736,-1.41508 0.56603,-3.06601 0.56603,-4.95279c0,-8.96219 -3.91506,-22.07529 -11.74519,-39.3393c-7.83013,-17.26401 -13.04235,-29.12712 -15.63667,-35.58933c-2.59432,-6.46221 -3.89148,-11.43859 -3.89148,-14.92912c0,-3.49054 0.56603,-6.50938 1.6981,-9.05653c2.64149,-5.84901 8.86785,-11.20274 18.67909,-16.06119c9.81124,-4.85845 24.71678,-10.96689 44.71662,-18.32532c2.83017,6.60372 4.90562,11.55651 6.22636,14.85837c-12.64141,4.15091 -19.57531,9.33955 -20.80172,15.56591c-0.28302,1.32074 -0.42452,2.73583 -0.42452,4.24525c0,5.37731 1.79244,11.74519 5.37731,19.10362c33.30162,-32.64124 51.50902,-50.56563 54.6222,-53.77315c8.39616,5.56599 15.54233,10.87255 21.4385,15.91968c5.89618,5.04713 12.99518,9.64615 21.297,13.79706l28.30166,-29.71674c11.32066,6.13203 22.68849,12.24047 34.1035,18.32532c11.415,6.08486 23.3017,11.29708 35.66009,15.63667c-15.18856,10.37727 -23.20736,27.97147 -24.05641,52.78259l-1.55659,52.64108c0,1.03773 0,2.07545 0,3.11318c0,15.28289 5.42448,24.57527 16.27345,27.87713l-22.49982,42.45249c-13.67913,-4.99996 -23.1366,-12.75933 -28.37241,-23.27811c-5.23581,-10.51878 -7.85371,-25.07055 -7.85371,-43.65531c0,-1.32074 0,-2.64149 0,-3.96223l0.28302,-35.66009c0,-8.58484 1.55659,-16.08477 4.66977,-22.49982c3.11318,-6.41504 7.16975,-12.87725 12.16971,-19.38663c-18.96211,-13.86781 -33.16011,-21.36775 -42.59399,-22.49982c-3.58488,5.37731 -5.4009,11.74519 -5.44807,19.10362c-0.04717,7.35843 -0.25943,15.94327 -0.63679,25.75451l-1.55659,52.64108c0,1.03773 0,2.07545 0,3.11318c0,17.07533 4.4811,27.07525 13.44329,29.99976l-33.11294,40.32986c-5.0943,-6.41504 -10.84897,-12.4999 -17.26401,-18.25457c-6.41504,-5.75467 -12.45273,-11.03765 -18.11306,-15.84893c2.83017,-3.30186 5.61316,-8.4905 8.34899,-15.56591c2.73583,-7.07541 4.15091,-14.15083 4.24525,-21.22624l4.95279,-87.59363c-8.20748,-6.13203 -14.57535,-9.19804 -19.10362,-9.19804c-1.13207,0 -2.16979,0.18868 -3.11318,0.56603c-4.43393,1.98112 -13.44329,9.52822 -27.02808,22.64133l1.83961,3.25469c7.07541,13.20744 10.61312,24.15075 10.61312,32.82992c0,2.35847 -0.28302,4.57543 -0.84905,6.65089c-2.54715,9.52822 -11.50934,24.29226 -26.88657,44.29209c8.86785,6.41504 21.22624,11.415 37.07517,14.99988z" data-paper-data="{&quot;elementType&quot;:&quot;letter&quot;,&quot;baseline&quot;:74.951171875,&quot;baselineProportion&quot;:1.0206117021276595,&quot;fontSize&quot;:100}"></path><path d="M373.20504,194.90448l33.96199,33.96199l-33.96199,33.96199l-33.96199,-33.96199z" data-paper-data="{&quot;elementType&quot;:&quot;letter&quot;,&quot;baseline&quot;:24.951171875,&quot;baselineProportion&quot;:1.0645833333333334,&quot;fontSize&quot;:100}"></path></g></g></g></svg>