<svg version="1.1" xmlns="http://www.w3.org/2000/svg" xmlns:xlink="http://www.w3.org/1999/xlink" width="500" height="500"><defs><linearGradient x1="355.70409" y1="83.33333" x2="355.70409" y2="416.66667" gradientUnits="userSpaceOnUse" id="color-1"><stop offset="0" stop-color="#5b105f"></stop><stop offset="1" stop-color="#89178f"></stop></linearGradient><clipPath id="clip-1"><rect x="97.81831" y="49.27277" transform="scale(1.69127,1.69127)" width="100" height="100"></rect></clipPath><linearGradient x1="355.70409" y1="83.33333" x2="355.70409" y2="416.66667" gradientUnits="userSpaceOnUse" id="color-2"><stop offset="0" stop-color="#5b105f"></stop><stop offset="1" stop-color="#89178f"></stop></linearGradient></defs><g data-paper-data="{&quot;description&quot;:&quot;Logo for XBP\n============\n\nThis logo was generated by MarkMaker at http://emblemmatic.org/markmaker/ and may be composed of elements designed by others.\n\nThe font is Iceberg designed by Cyreal and released under the OFL license via Google Fonts: https://www.google.com/fonts/specimen/Iceberg. The font includes this copyright statement: Copyright (c) 2011, Cyreal (www.cyreal.org a@cyreal.org), with Reserved Font Name \\\&quot;Iceberg\\\&quot;.\n\nThe symbol is 'ontario' designed by Maziar and released into the public domain at the Noun Project: https://thenounproject.com/term/ontario/48714.\n\nMarkMaker uses semantic data from the Princeton University WordNet database http://wordnet.princeton.edu and font descriptions from Google Fonts https://www.google.com/fonts.&quot;}" fill="none" fill-rule="nonzero" stroke="none" stroke-width="none" stroke-linecap="butt" stroke-linejoin="miter" stroke-miterlimit="10" stroke-dasharray="" stroke-dashoffset="0" font-family="none" font-weight="none" font-size="none" text-anchor="none" style="mix-blend-mode: normal"><path d="M110.96258,450v-400h278.07485v400z" fill="none" stroke="#721477" stroke-width="3.5"></path><g data-paper-data="{&quot;elementType&quot;:&quot;logo&quot;}" fill="url(#color-1)" stroke="none" stroke-width="1"><g data-paper-data="{&quot;elementType&quot;:&quot;text&quot;}"><g data-paper-data="{&quot;baseline&quot;:69.10000000000001,&quot;elementType&quot;:&quot;row&quot;}"><g data-paper-data="{&quot;baselineProportion&quot;:1,&quot;fontSize&quot;:100,&quot;baseline&quot;:69.10000000000001,&quot;elementType&quot;:&quot;word&quot;}"><path d="M197.92382,416.66667h-12.28973v-20.73116l-14.27595,-20.60702h-1.48966l-13.40698,20.60702v20.73116h-12.16559v-23.71049l18.37253,-26.06912l-18.37253,-24.82774v-11.17248h12.16559v8.56557l14.40009,20.35874h1.48966l13.28284,-20.35874v-8.56557h12.28973v11.17248l-18.24839,24.82774l18.12425,26.06912z" data-paper-data="{&quot;elementType&quot;:&quot;letter&quot;,&quot;baseline&quot;:69.10000000000001,&quot;baselineProportion&quot;:1,&quot;fontSize&quot;:100}"></path><path d="M276.00705,405.8666l-10.80007,10.80007h-42.82785v-64.42798l10.80007,-10.55179h-12.28973v-10.80007h35.13125l10.80007,10.80007v15.26906l-7.57246,7.57246h7.57246l9.18626,9.18626v32.15192M263.71732,405.8666v-32.15192h-29.04845v32.15192zM254.53106,364.52842v-22.84152h-19.86219v32.02778l9.06212,-9.18626h10.80007" data-paper-data="{&quot;elementType&quot;:&quot;letter&quot;,&quot;baseline&quot;:69.10000000000001,&quot;baselineProportion&quot;:1,&quot;fontSize&quot;:100}"></path><path d="M355.70409,373.71468l-10.80007,10.80007h-30.53812v32.15192h-12.28973v-64.42798l10.80007,-10.55179h-12.28973v-10.80007h44.31751l10.80007,10.80007v32.02778M343.41436,373.71468v-32.02778h-29.04845v41.33818l9.06212,-9.3104z" data-paper-data="{&quot;elementType&quot;:&quot;letter&quot;,&quot;baseline&quot;:69.10000000000001,&quot;baselineProportion&quot;:1,&quot;fontSize&quot;:100}"></path></g></g></g></g><g clip-path="url(#clip-1)" data-paper-data="{&quot;elementType&quot;:&quot;emblem&quot;}" fill="url(#color-2)" stroke="none" stroke-width="1"><path d="M273.62021,159.513c0.01353,-0.01522 0.03552,-0.03552 0.04566,-0.04905c1.58641,-1.9551 -1.39191,-22.75259 -8.56288,-34.03672c-2.34917,-3.69711 -3.78674,-5.7892 -5.44418,-7.98108c-6.60777,-8.73708 -10.14759,-10.359 -10.14759,-10.359c0,0 -23.6422,18.15573 -22.93694,51.1946c-2.96648,0.10993 -18.97262,12.73185 -25.0747,24.33393c-2.03967,3.87469 -3.13899,6.16466 -4.21632,8.6948c-4.29412,10.07487 -3.94065,13.95294 -3.94065,13.95294c0,0 27.51858,11.48369 55.83544,-5.57103c0.01184,0.03552 0.02199,0.0778 0.03383,0.10655c0.90821,2.34917 20.43049,10.11208 33.78472,9.5066c4.3753,-0.19619 6.90713,-0.40252 9.63345,-0.75092c10.86469,-1.38346 14.03412,-3.64806 14.03412,-3.64806c0,0 -3.99139,-29.57516 -33.04394,-45.39356zM251.33103,193.84569c1.79105,-2.00077 7.861,-9.89898 1.68281,-19.13667c-0.42789,-0.63761 -0.83887,-0.39914 -0.83887,-0.39914c0,0 0.10655,18.30287 -8.73031,20.90235c-8.83686,2.59947 -23.48491,7.44157 -34.54748,0.76953c-1.17881,-0.71033 2.07518,-21.98645 21.72769,-32.77165c0.92343,2.70433 4.79643,11.59193 15.71524,10.83932c0.76614,-0.05243 0.76614,-0.52937 0.76614,-0.52937c0,0 -15.9351,-9.01106 -13.79396,-17.9697c2.14114,-8.95863 5.22432,-24.07685 16.5169,-30.35483c1.20756,-0.67143 18.17434,12.84178 17.61791,35.4151c-2.71617,-0.53951 -12.47647,-1.69803 -17.29488,8.22632c-0.33487,0.69173 0.0778,0.9285 0.0778,0.9285c0,0 15.74568,-9.33748 22.45155,-3.02567c6.70587,6.31349 18.28765,16.51182 18.11345,29.42802c-0.01691,1.38176 -20.16665,9.37299 -39.46399,-2.32211zM225.66776,142.77286c0,0 -1.67604,5.48139 -1.01983,12.72508l-22.65112,-12.72508c0.00169,0 10.52136,-7.12699 23.67095,0zM201.27972,144.26963l22.56825,12.87391c-6.54858,3.16605 -10.38775,7.42127 -10.38775,7.42127c-12.87899,-7.609 -12.18049,-20.29519 -12.18049,-20.29519zM287.69323,166.31358c0,0 -3.92543,-4.17912 -10.53658,-7.20986l22.30272,-13.32886c-0.00169,0 0.95387,12.67265 -11.76613,20.53873zM298.51733,144.41l-22.38728,13.18172c0.50738,-7.25722 -1.27521,-12.70309 -1.27521,-12.70309c13.00076,-7.39252 23.66249,-0.47863 23.66249,-0.47863zM236.59841,208.11151c0,0 5.5964,-1.24646 11.57671,-5.38668l0.09471,25.97953c0,0.00169 -11.38729,-5.63699 -11.67142,-20.59285zM249.92558,228.59274l0.07442,-25.98122c5.98539,4.13514 11.5784,5.37992 11.5784,5.37992c-0.2706,14.95755 -11.65282,20.6013 -11.65282,20.6013z"></path></g></g></svg>